<svg width="157" height="29" viewBox="0 0 157 29" fill="none" xmlns="http://www.w3.org/2000/svg">
<path d="M16.6883 17.2066H5.9336V28.3161H0.332185V1.13058H18.0326V5.66772H5.9336V12.6882H16.6883V17.2066ZM26.6215 28.3161H21.2068V8.11367H26.6215V28.3161ZM20.8894 2.88569C20.8894 2.0766 21.157 1.41065 21.6922 0.887853C22.2399 0.365055 22.9806 0.103656 23.9141 0.103656C24.8352 0.103656 25.5697 0.365055 26.1173 0.887853C26.665 1.41065 26.9389 2.0766 26.9389 2.88569C26.9389 3.70723 26.6588 4.3794 26.0987 4.9022C25.551 5.425 24.8228 5.6864 23.9141 5.6864C23.0055 5.6864 22.271 5.425 21.7109 4.9022C21.1632 4.3794 20.8894 3.70723 20.8894 2.88569ZM36.0505 8.11367L36.2186 10.4476C37.6625 8.6427 39.5981 7.74025 42.0254 7.74025C44.1663 7.74025 45.7596 8.36885 46.8052 9.62605C47.8508 10.8833 48.3861 12.7628 48.411 15.2648V28.3161H43.0149V15.3955C43.0149 14.2503 42.766 13.4226 42.2681 12.9122C41.7702 12.3894 40.9424 12.128 39.7848 12.128C38.2662 12.128 37.1272 12.7753 36.3679 14.0698V28.3161H30.9719V8.11367H36.0505ZM64.2256 28.3161C63.9767 27.8306 63.7962 27.2269 63.6841 26.505C62.3772 27.9613 60.6781 28.6895 58.5869 28.6895C56.6077 28.6895 54.9646 28.1169 53.6576 26.9718C52.3631 25.8266 51.7158 24.3827 51.7158 22.64C51.7158 20.499 52.5062 18.8559 54.0871 17.7108C55.6804 16.5656 57.9769 15.9868 60.9768 15.9743H63.4601V14.8167C63.4601 13.8831 63.2174 13.1363 62.7319 12.5761C62.2589 12.016 61.5058 11.7359 60.4727 11.7359C59.564 11.7359 58.8483 11.9538 58.3255 12.3894C57.8151 12.8251 57.5599 13.4226 57.5599 14.1819H52.1639C52.1639 13.0118 52.5249 11.9289 53.2468 10.9331C53.9688 9.93724 54.9895 9.15927 56.309 8.59913C57.6284 8.02654 59.1097 7.74025 60.7527 7.74025C63.2423 7.74025 65.2152 8.36885 66.6716 9.62605C68.1404 10.8708 68.8748 12.6259 68.8748 14.8914V23.6483C68.8872 25.5652 69.1549 27.0153 69.6777 27.9987V28.3161H64.2256ZM59.7632 24.5632C60.5598 24.5632 61.2942 24.3889 61.9664 24.0404C62.6385 23.6794 63.1365 23.2001 63.4601 22.6027V19.1298H61.4436C58.7425 19.1298 57.3048 20.0634 57.1305 21.9305L57.1118 22.2479C57.1118 22.9201 57.3483 23.474 57.8213 23.9097C58.2943 24.3453 58.9416 24.5632 59.7632 24.5632ZM77.9864 8.11367L78.1545 10.4476C79.5984 8.6427 81.534 7.74025 83.9613 7.74025C86.1022 7.74025 87.6955 8.36885 88.7411 9.62605C89.7867 10.8833 90.322 12.7628 90.3469 15.2648V28.3161H84.9508V15.3955C84.9508 14.2503 84.7019 13.4226 84.204 12.9122C83.7061 12.3894 82.8783 12.128 81.7207 12.128C80.2021 12.128 79.0631 12.7753 78.3038 14.0698V28.3161H72.9078V8.11367H77.9864ZM102.857 24.3391C103.852 24.3391 104.662 24.0652 105.284 23.5176C105.906 22.9699 106.23 22.2417 106.255 21.333H111.315C111.302 22.7022 110.929 23.9594 110.195 25.1046C109.46 26.2374 108.452 27.1211 107.17 27.756C105.9 28.3783 104.494 28.6895 102.95 28.6895C100.062 28.6895 97.7843 27.7746 96.1163 25.9448C94.4483 24.1026 93.6144 21.5633 93.6144 18.3269V17.9722C93.6144 14.8603 94.4421 12.377 96.0976 10.5223C97.7532 8.66759 100.025 7.74025 102.913 7.74025C105.44 7.74025 107.462 8.46221 108.981 9.90613C110.512 11.3376 111.29 13.2483 111.315 15.6382H106.255C106.23 14.5926 105.906 13.7462 105.284 13.0989C104.662 12.4392 103.84 12.1093 102.819 12.1093C101.562 12.1093 100.61 12.5699 99.9626 13.491C99.3278 14.3997 99.0104 15.881 99.0104 17.9348V18.495C99.0104 20.5737 99.3278 22.0674 99.9626 22.9761C100.597 23.8848 101.562 24.3391 102.857 24.3391ZM120.09 28.3161H114.676V8.11367H120.09V28.3161ZM114.358 2.88569C114.358 2.0766 114.626 1.41065 115.161 0.887853C115.709 0.365055 116.449 0.103656 117.383 0.103656C118.304 0.103656 119.039 0.365055 119.586 0.887853C120.134 1.41065 120.408 2.0766 120.408 2.88569C120.408 3.70723 120.128 4.3794 119.568 4.9022C119.02 5.425 118.292 5.6864 117.383 5.6864C116.474 5.6864 115.74 5.425 115.18 4.9022C114.632 4.3794 114.358 3.70723 114.358 2.88569ZM133.851 28.6895C130.889 28.6895 128.474 27.7809 126.607 25.9635C124.752 24.1462 123.825 21.7251 123.825 18.7003V18.1775C123.825 16.1486 124.217 14.3375 125.001 12.7442C125.785 11.1384 126.893 9.90613 128.324 9.04724C129.768 8.17591 131.411 7.74025 133.254 7.74025C136.017 7.74025 138.189 8.61158 139.77 10.3542C141.363 12.0969 142.16 14.5677 142.16 17.7668V19.97H129.295C129.47 21.2894 129.992 22.3475 130.864 23.1441C131.748 23.9408 132.862 24.3391 134.206 24.3391C136.285 24.3391 137.909 23.586 139.079 22.0799L141.73 25.0486C140.921 26.1938 139.826 27.09 138.444 27.7373C137.063 28.3721 135.532 28.6895 133.851 28.6895ZM133.235 12.1093C132.165 12.1093 131.293 12.4703 130.621 13.1923C129.961 13.9142 129.538 14.9474 129.351 16.2917H136.857V15.8623C136.832 14.6673 136.509 13.7462 135.886 13.0989C135.264 12.4392 134.38 12.1093 133.235 12.1093ZM156.593 13.1736C155.858 13.074 155.211 13.0242 154.651 13.0242C152.61 13.0242 151.272 13.7151 150.637 15.0968V28.3161H145.241V8.11367H150.338L150.487 10.5223C151.57 8.66759 153.07 7.74025 154.987 7.74025C155.585 7.74025 156.145 7.82116 156.668 7.98297L156.593 13.1736Z" fill="white"/>
</svg>
