<svg width="23" height="23" viewBox="0 0 23 23" fill="none" xmlns="http://www.w3.org/2000/svg">
<path d="M22.3194 2.67981L22.2831 2.65716L17.6993 0.39888L12.7518 6.99553L15.028 10.0307C14.9599 11.1753 14.4745 12.2553 13.6637 13.0661C12.8529 13.8769 11.7729 14.3623 10.6283 14.4304L7.59318 12.1541L0.996582 17.1015L3.23607 21.647L3.25491 21.6854L3.27762 21.7216C3.39713 21.9142 3.56394 22.073 3.76216 22.1828C3.96039 22.2927 4.18343 22.35 4.41007 22.3493H5.59285C7.87184 22.3493 10.1285 21.9004 12.234 21.0283C14.3395 20.1561 16.2526 18.8778 17.8641 17.2663C19.4756 15.6549 20.7539 13.7418 21.626 11.6363C22.4981 9.53075 22.947 7.27408 22.947 4.9951V3.81226C22.9477 3.58563 22.8904 3.36258 22.7806 3.16436C22.6707 2.96613 22.5119 2.79932 22.3194 2.67981ZM21.253 4.9951C21.253 13.6302 14.2279 20.6553 5.59285 20.6553H4.63578L3.13739 17.6135L7.59349 14.2714L10.0744 16.1321H10.3567C12.0465 16.1302 13.6665 15.4581 14.8613 14.2632C16.0562 13.0684 16.7282 11.4484 16.7301 9.75865V9.47634L14.8695 6.99547L18.2112 2.53964L21.253 4.03829V4.9951Z" fill="white"/>
</svg>
