<svg width="159" height="11" viewBox="0 0 159 11" fill="none" xmlns="http://www.w3.org/2000/svg">
<path d="M4.04929 4.20234C3.87426 4.17317 3.68465 4.15858 3.48045 4.15858C2.722 4.15858 2.20734 4.48155 1.93647 5.12748V9.92822H0.780041V3.16468H1.90521L1.92397 3.94605C2.30319 3.34179 2.84077 3.03966 3.53671 3.03966C3.76175 3.03966 3.93261 3.06883 4.04929 3.12717V4.20234ZM12.6006 10.0532C11.6838 10.0532 10.9378 9.75319 10.3628 9.1531C9.78767 8.54884 9.50012 7.74246 9.50012 6.73398V6.52144C9.50012 5.85051 9.62723 5.2525 9.88143 4.72742C10.1398 4.19817 10.4982 3.78561 10.9566 3.48973C11.4192 3.18968 11.9192 3.03966 12.4568 3.03966C13.3361 3.03966 14.0196 3.32929 14.5071 3.90854C14.9947 4.4878 15.2385 5.31709 15.2385 6.39642V6.87775H10.6566C10.6732 7.54452 10.867 8.08418 11.2379 8.49675C11.6129 8.90514 12.088 9.10934 12.6631 9.10934C13.0715 9.10934 13.4174 9.02599 13.7008 8.8593C13.9841 8.69261 14.2321 8.47174 14.4446 8.1967L15.151 8.74678C14.5842 9.61775 13.7341 10.0532 12.6006 10.0532ZM12.4568 3.98981C11.9901 3.98981 11.5984 4.16067 11.2816 4.50239C10.9649 4.83994 10.7691 5.31501 10.6941 5.9276H14.0821V5.84009C14.0487 5.2525 13.8904 4.79826 13.607 4.47738C13.3236 4.15233 12.9402 3.98981 12.4568 3.98981ZM25.3213 8.13419C25.3213 7.82164 25.2025 7.57994 24.965 7.40908C24.7316 7.23405 24.3211 7.08403 23.7336 6.95901C23.1501 6.83399 22.6855 6.68397 22.3396 6.50894C21.9979 6.33392 21.7437 6.12555 21.577 5.88385C21.4144 5.64214 21.3332 5.3546 21.3332 5.02121C21.3332 4.46696 21.5666 3.99814 22.0333 3.61475C22.5042 3.23136 23.1043 3.03966 23.8336 3.03966C24.6004 3.03966 25.2213 3.23761 25.6964 3.6335C26.1756 4.0294 26.4152 4.53572 26.4152 5.15248H25.2525C25.2525 4.83577 25.1171 4.56281 24.8462 4.33361C24.5795 4.10441 24.242 3.98981 23.8336 3.98981C23.4127 3.98981 23.0835 4.08149 22.8459 4.26485C22.6084 4.44821 22.4896 4.68783 22.4896 4.98371C22.4896 5.26292 22.6 5.47337 22.8209 5.61506C23.0418 5.75674 23.4398 5.89218 24.0148 6.02137C24.5941 6.15055 25.0629 6.30474 25.4213 6.48394C25.7797 6.66313 26.0443 6.87983 26.2152 7.13404C26.3902 7.38408 26.4777 7.69037 26.4777 8.05293C26.4777 8.65719 26.236 9.14268 25.7526 9.5094C25.2692 9.87196 24.642 10.0532 23.8711 10.0532C23.3293 10.0532 22.8501 9.95739 22.4334 9.76569C22.0166 9.57399 21.6895 9.30729 21.452 8.96557C21.2186 8.61968 21.1019 8.24671 21.1019 7.84665H22.2583C22.2792 8.23421 22.4334 8.54259 22.7209 8.77179C23.0126 8.99682 23.396 9.10934 23.8711 9.10934C24.3086 9.10934 24.6587 9.02183 24.9212 8.8468C25.1879 8.66761 25.3213 8.43007 25.3213 8.13419ZM35.5916 10.0532C34.6748 10.0532 33.9289 9.75319 33.3538 9.1531C32.7787 8.54884 32.4911 7.74246 32.4911 6.73398V6.52144C32.4911 5.85051 32.6182 5.2525 32.8725 4.72742C33.1308 4.19817 33.4892 3.78561 33.9476 3.48973C34.4102 3.18968 34.9103 3.03966 35.4478 3.03966C36.3271 3.03966 37.0106 3.32929 37.4982 3.90854C37.9857 4.4878 38.2295 5.31709 38.2295 6.39642V6.87775H33.6476C33.6642 7.54452 33.858 8.08418 34.2289 8.49675C34.604 8.90514 35.079 9.10934 35.6541 9.10934C36.0625 9.10934 36.4084 9.02599 36.6918 8.8593C36.9752 8.69261 37.2231 8.47174 37.4357 8.1967L38.142 8.74678C37.5753 9.61775 36.7251 10.0532 35.5916 10.0532ZM35.4478 3.98981C34.9811 3.98981 34.5894 4.16067 34.2727 4.50239C33.956 4.83994 33.7601 5.31501 33.6851 5.9276H37.0731V5.84009C37.0398 5.2525 36.8814 4.79826 36.598 4.47738C36.3146 4.15233 35.9313 3.98981 35.4478 3.98981ZM48.5498 9.92822C48.4832 9.79486 48.429 9.55732 48.3873 9.21561C47.8497 9.77402 47.208 10.0532 46.462 10.0532C45.7953 10.0532 45.2473 9.86571 44.818 9.49065C44.393 9.11142 44.1804 8.63218 44.1804 8.05293C44.1804 7.34865 44.4471 6.80274 44.9806 6.41518C45.5181 6.02345 46.2724 5.82759 47.2434 5.82759H48.3686V5.29626C48.3686 4.89203 48.2477 4.57115 48.006 4.33361C47.7643 4.09191 47.408 3.97105 46.9371 3.97105C46.5245 3.97105 46.1787 4.07524 45.8994 4.2836C45.6202 4.49197 45.4806 4.74409 45.4806 5.03997H44.318C44.318 4.70242 44.4367 4.37737 44.6743 4.06482C44.916 3.7481 45.241 3.49806 45.6494 3.3147C46.062 3.13134 46.5141 3.03966 47.0059 3.03966C47.7851 3.03966 48.3957 3.23552 48.8374 3.62725C49.2791 4.01481 49.5083 4.55031 49.525 5.23375V8.34672C49.525 8.96765 49.6042 9.46148 49.7625 9.8282V9.92822H48.5498ZM46.6308 9.04683C46.9934 9.04683 47.3372 8.95307 47.6622 8.76554C47.9873 8.57801 48.2227 8.33422 48.3686 8.03418V6.64646H47.4622C46.0453 6.64646 45.3369 7.06111 45.3369 7.8904C45.3369 8.25296 45.4577 8.53634 45.6994 8.74053C45.9411 8.94473 46.2516 9.04683 46.6308 9.04683ZM59.4078 4.20234C59.2327 4.17317 59.0431 4.15858 58.8389 4.15858C58.0805 4.15858 57.5658 4.48155 57.2949 5.12748V9.92822H56.1385V3.16468H57.2637L57.2824 3.94605C57.6617 3.34179 58.1992 3.03966 58.8952 3.03966C59.1202 3.03966 59.2911 3.06883 59.4078 3.12717V4.20234ZM67.8653 9.10934C68.2779 9.10934 68.6383 8.98432 68.9467 8.73428C69.2551 8.48424 69.426 8.1717 69.4593 7.79664H70.5532C70.5324 8.1842 70.399 8.553 70.1532 8.90306C69.9073 9.25311 69.5781 9.53232 69.1655 9.74069C68.7571 9.94905 68.3237 10.0532 67.8653 10.0532C66.9443 10.0532 66.2109 9.74694 65.665 9.13434C65.1232 8.51758 64.8523 7.67579 64.8523 6.60896V6.41518C64.8523 5.75674 64.9732 5.17124 65.2149 4.65866C65.4566 4.14608 65.8025 3.7481 66.2526 3.46473C66.7068 3.18135 67.2423 3.03966 67.8591 3.03966C68.6175 3.03966 69.2468 3.26678 69.7468 3.72102C70.2511 4.17525 70.5199 4.76493 70.5532 5.49004H69.4593C69.426 5.05247 69.2593 4.69408 68.9592 4.41487C68.6633 4.1315 68.2966 3.98981 67.8591 3.98981C67.2715 3.98981 66.8151 4.20234 66.4901 4.6274C66.1692 5.0483 66.0088 5.65881 66.0088 6.45893V6.67772C66.0088 7.457 66.1692 8.0571 66.4901 8.47799C66.811 8.89889 67.2694 9.10934 67.8653 9.10934ZM77.8106 3.98356C78.3232 3.35429 78.9899 3.03966 79.8109 3.03966C81.2403 3.03966 81.9612 3.84603 81.9737 5.45878V9.92822H80.8173V5.45253C80.8131 4.96496 80.7006 4.60448 80.4797 4.37112C80.263 4.13775 79.9234 4.02106 79.4608 4.02106C79.0858 4.02106 78.7566 4.12108 78.4732 4.32111C78.1898 4.52114 77.9689 4.78368 77.8106 5.10873V9.92822H76.6541V0.326746H77.8106V3.98356ZM102.208 6.62146C102.208 7.65495 101.971 8.48633 101.495 9.11559C101.02 9.74069 100.383 10.0532 99.5827 10.0532C98.7284 10.0532 98.0678 9.7511 97.6011 9.14685L97.5448 9.92822H96.4822V0.326746H97.6386V3.90854C98.1053 3.32929 98.7492 3.03966 99.5702 3.03966C100.391 3.03966 101.035 3.35013 101.502 3.97105C101.973 4.59198 102.208 5.44211 102.208 6.52144V6.62146ZM101.052 6.49019C101.052 5.70257 100.9 5.09414 100.595 4.66491C100.291 4.23568 99.8535 4.02106 99.2826 4.02106C98.52 4.02106 97.972 4.37528 97.6386 5.08372V8.00917C97.9928 8.71761 98.545 9.07183 99.2951 9.07183C99.8494 9.07183 100.281 8.85722 100.589 8.42799C100.897 7.99875 101.052 7.35282 101.052 6.49019ZM112.647 9.25936C112.197 9.78861 111.537 10.0532 110.666 10.0532C109.945 10.0532 109.395 9.84487 109.015 9.42814C108.64 9.00724 108.451 8.38631 108.447 7.56535V3.16468H109.603V7.5341C109.603 8.55926 110.02 9.07183 110.853 9.07183C111.737 9.07183 112.324 8.74262 112.616 8.08418V3.16468H113.772V9.92822H112.672L112.647 9.25936ZM123.605 4.20234C123.43 4.17317 123.24 4.15858 123.036 4.15858C122.278 4.15858 121.763 4.48155 121.492 5.12748V9.92822H120.336V3.16468H121.461L121.48 3.94605C121.859 3.34179 122.397 3.03966 123.092 3.03966C123.318 3.03966 123.488 3.06883 123.605 3.12717V4.20234ZM132.156 10.0532C131.24 10.0532 130.494 9.75319 129.919 9.1531C129.343 8.54884 129.056 7.74246 129.056 6.73398V6.52144C129.056 5.85051 129.183 5.2525 129.437 4.72742C129.696 4.19817 130.054 3.78561 130.512 3.48973C130.975 3.18968 131.475 3.03966 132.013 3.03966C132.892 3.03966 133.575 3.32929 134.063 3.90854C134.551 4.4878 134.794 5.31709 134.794 6.39642V6.87775H130.212C130.229 7.54452 130.423 8.08418 130.794 8.49675C131.169 8.90514 131.644 9.10934 132.219 9.10934C132.627 9.10934 132.973 9.02599 133.257 8.8593C133.54 8.69261 133.788 8.47174 134 8.1967L134.707 8.74678C134.14 9.61775 133.29 10.0532 132.156 10.0532ZM132.013 3.98981C131.546 3.98981 131.154 4.16067 130.837 4.50239C130.521 4.83994 130.325 5.31501 130.25 5.9276H133.638V5.84009C133.605 5.2525 133.446 4.79826 133.163 4.47738C132.879 4.15233 132.496 3.98981 132.013 3.98981ZM145.115 9.92822C145.048 9.79486 144.994 9.55732 144.952 9.21561C144.415 9.77402 143.773 10.0532 143.027 10.0532C142.36 10.0532 141.812 9.86571 141.383 9.49065C140.958 9.11142 140.745 8.63218 140.745 8.05293C140.745 7.34865 141.012 6.80274 141.545 6.41518C142.083 6.02345 142.837 5.82759 143.808 5.82759H144.933V5.29626C144.933 4.89203 144.812 4.57115 144.571 4.33361C144.329 4.09191 143.973 3.97105 143.502 3.97105C143.089 3.97105 142.743 4.07524 142.464 4.2836C142.185 4.49197 142.045 4.74409 142.045 5.03997H140.883C140.883 4.70242 141.001 4.37737 141.239 4.06482C141.481 3.7481 141.806 3.49806 142.214 3.3147C142.627 3.13134 143.079 3.03966 143.571 3.03966C144.35 3.03966 144.96 3.23552 145.402 3.62725C145.844 4.01481 146.073 4.55031 146.09 5.23375V8.34672C146.09 8.96765 146.169 9.46148 146.327 9.8282V9.92822H145.115ZM143.196 9.04683C143.558 9.04683 143.902 8.95307 144.227 8.76554C144.552 8.57801 144.787 8.33422 144.933 8.03418V6.64646H144.027C142.61 6.64646 141.902 7.06111 141.902 7.8904C141.902 8.25296 142.022 8.53634 142.264 8.74053C142.506 8.94473 142.816 9.04683 143.196 9.04683ZM156.879 9.25936C156.429 9.78861 155.768 10.0532 154.897 10.0532C154.176 10.0532 153.626 9.84487 153.247 9.42814C152.872 9.00724 152.682 8.38631 152.678 7.56535V3.16468H153.835V7.5341C153.835 8.55926 154.251 9.07183 155.085 9.07183C155.968 9.07183 156.556 8.74262 156.848 8.08418V3.16468H158.004V9.92822H156.904L156.879 9.25936Z" fill="#9B9797"/>
</svg>
